<svg width="400" height="116" viewBox="0 0 400 116" fill="none" xmlns="http://www.w3.org/2000/svg">
<path d="M397.778 102.229C397.778 108.387 392.686 113.375 386.387 113.375H13.6276C7.33223 113.375 2.22223 108.387 2.22223 102.229V13.3411C2.22223 7.18593 7.33223 2.1803 13.6276 2.1803H386.384C392.686 2.1803 397.775 7.18593 397.775 13.3411L397.778 102.229Z" fill="black"/>
<path d="M385.185 2.31471C392.044 2.31471 397.626 7.75666 397.626 14.4444V101.111C397.626 107.799 392.044 113.241 385.185 113.241H14.8148C7.95555 113.241 2.37407 107.799 2.37407 101.111V14.4444C2.37407 7.75666 7.95555 2.31471 14.8148 2.31471H385.185ZM385.185 -7.62939e-06H14.8148C6.67037 -7.62939e-06 0 6.5036 0 14.4444V101.111C0 109.052 6.67037 115.556 14.8148 115.556H385.185C393.33 115.556 400 109.052 400 101.111V14.4444C400 6.5036 393.33 -7.62939e-06 385.185 -7.62939e-06Z" fill="#A6A6A6"/>
<path d="M89.2682 57.1538C89.1822 47.8429 97.0874 43.3131 97.4489 43.1022C92.9719 36.738 86.0326 35.8684 83.5941 35.7991C77.7659 35.2011 72.1126 39.1993 69.1437 39.1993C66.1156 39.1993 61.5437 35.8569 56.6163 35.9551C50.2756 36.0504 44.3437 39.6298 41.0904 45.188C34.3763 56.5211 39.3837 73.1755 45.8163 82.3362C49.0341 86.8226 52.7941 91.832 57.7156 91.6558C62.5304 91.4622 64.3289 88.6629 70.1393 88.6629C75.8963 88.6629 77.5852 91.6558 82.6045 91.5431C87.7719 91.4622 91.0252 87.0364 94.1304 82.5095C97.8489 77.3673 99.3422 72.3031 99.4015 72.0431C99.28 72.0027 89.3659 68.3135 89.2682 57.1538Z" fill="white"/>
<path d="M79.7867 29.7729C82.3763 26.6153 84.1482 22.3195 83.6563 17.9602C79.9082 18.122 75.2207 20.488 72.5215 23.5762C70.1333 26.2975 68 30.758 68.5511 34.9527C72.7615 35.2589 77.0845 32.8813 79.7867 29.7729Z" fill="white"/>
<path d="M145.333 28.9149C145.333 32.3151 144.287 34.8747 142.199 36.5936C140.264 38.1796 137.514 38.974 133.953 38.974C132.187 38.974 130.676 38.8989 129.41 38.7487V20.1702C131.061 19.9102 132.839 19.7773 134.759 19.7773C138.151 19.7773 140.708 20.4967 142.433 21.9353C144.364 23.5618 145.333 25.8873 145.333 28.9149ZM142.059 28.9987C142.059 26.7945 141.461 25.1045 140.264 23.9258C139.067 22.75 137.319 22.1607 135.016 22.1607C134.039 22.1607 133.206 22.2242 132.516 22.3571V36.4809C132.898 36.5387 133.597 36.5647 134.613 36.5647C136.99 36.5647 138.824 35.9205 140.116 34.632C141.407 33.3436 142.059 31.4658 142.059 28.9987Z" fill="white"/>
<path d="M162.693 31.8847C162.693 33.9791 162.08 35.6951 160.853 37.0413C159.567 38.4251 157.864 39.1156 155.736 39.1156C153.686 39.1156 152.053 38.454 150.836 37.1251C149.621 35.7991 149.013 34.1264 149.013 32.11C149.013 30.0011 149.639 28.2707 150.895 26.9273C152.151 25.584 153.84 24.9109 155.967 24.9109C158.018 24.9109 159.665 25.5724 160.913 26.8984C162.098 28.1869 162.693 29.8509 162.693 31.8847ZM159.473 31.9829C159.473 30.7262 159.194 29.6487 158.64 28.7502C157.988 27.664 157.061 27.1209 155.855 27.1209C154.607 27.1209 153.659 27.664 153.007 28.7502C152.45 29.6487 152.175 30.7436 152.175 32.0378C152.175 33.2944 152.453 34.372 153.007 35.2704C153.68 36.3567 154.616 36.8998 155.825 36.8998C157.01 36.8998 157.941 36.348 158.61 35.2416C159.185 34.3258 159.473 33.2396 159.473 31.9829Z" fill="white"/>
<path d="M185.97 25.1882L181.6 38.8065H178.756L176.945 32.8929C176.486 31.4167 176.113 29.9491 175.822 28.4931H175.766C175.496 29.9896 175.123 31.4542 174.643 32.8929L172.72 38.8065H169.843L165.733 25.1882H168.924L170.504 31.6622C170.886 33.1933 171.2 34.6522 171.452 36.0331H171.508C171.739 34.8949 172.122 33.4447 172.661 31.6911L174.643 25.1911H177.173L179.073 31.5525C179.532 33.1038 179.905 34.5973 180.193 36.036H180.279C180.489 34.6349 180.806 33.1413 181.227 31.5525L182.922 25.1911H185.97V25.1882Z" fill="white"/>
<path d="M202.068 38.8065H198.963V31.0065C198.963 28.603 198.027 27.4012 196.148 27.4012C195.227 27.4012 194.483 27.7305 193.905 28.3921C193.333 29.0536 193.043 29.8336 193.043 30.7263V38.8036H189.938V29.0796C189.938 27.8836 189.899 26.5865 189.825 25.1825H192.554L192.699 27.3116H192.785C193.147 26.6501 193.686 26.1041 194.394 25.6678C195.236 25.1594 196.178 24.9023 197.209 24.9023C198.513 24.9023 199.597 25.3125 200.459 26.1358C201.532 27.1441 202.068 28.6492 202.068 30.6483V38.8065Z" fill="white"/>
<path d="M210.631 38.8065H207.529V18.9396H210.631V38.8065Z" fill="white"/>
<path d="M228.913 31.8847C228.913 33.9791 228.299 35.6951 227.073 37.0413C225.787 38.4251 224.08 39.1156 221.956 39.1156C219.902 39.1156 218.27 38.454 217.055 37.1251C215.84 35.7991 215.233 34.1264 215.233 32.11C215.233 30.0011 215.858 28.2707 217.114 26.9273C218.37 25.584 220.059 24.9109 222.184 24.9109C224.237 24.9109 225.882 25.5724 227.132 26.8984C228.317 28.1869 228.913 29.8509 228.913 31.8847ZM225.689 31.9829C225.689 30.7262 225.41 29.6487 224.856 28.7502C224.207 27.664 223.277 27.1209 222.074 27.1209C220.824 27.1209 219.876 27.664 219.227 28.7502C218.67 29.6487 218.394 30.7436 218.394 32.0378C218.394 33.2944 218.673 34.372 219.227 35.2704C219.899 36.3567 220.836 36.8998 222.045 36.8998C223.23 36.8998 224.157 36.348 224.827 35.2416C225.404 34.3258 225.689 33.2396 225.689 31.9829Z" fill="white"/>
<path d="M243.941 38.8064H241.153L240.922 37.2378H240.836C239.882 38.4887 238.522 39.1156 236.756 39.1156C235.437 39.1156 234.37 38.7024 233.567 37.882C232.839 37.1367 232.474 36.2093 232.474 35.1087C232.474 33.4447 233.185 32.1764 234.616 31.2982C236.044 30.42 238.053 29.9896 240.64 30.0098V29.7556C240.64 27.9616 239.674 27.066 237.739 27.066C236.362 27.066 235.147 27.404 234.098 28.0742L233.467 26.0867C234.764 25.3038 236.367 24.9109 238.258 24.9109C241.908 24.9109 243.739 26.7887 243.739 30.5442V35.5593C243.739 36.92 243.807 38.0033 243.941 38.8064ZM240.717 34.1264V32.0262C237.292 31.9684 235.579 32.8842 235.579 34.7707C235.579 35.4813 235.775 36.0129 236.175 36.3682C236.575 36.7236 237.084 36.8998 237.692 36.8998C238.373 36.8998 239.01 36.6889 239.591 36.27C240.175 35.8482 240.533 35.3138 240.667 34.658C240.699 34.5107 240.717 34.3316 240.717 34.1264Z" fill="white"/>
<path d="M261.585 38.8065H258.83L258.684 36.6196H258.599C257.719 38.2836 256.219 39.1156 254.113 39.1156C252.43 39.1156 251.028 38.4714 249.917 37.1829C248.806 35.8945 248.252 34.2218 248.252 32.1678C248.252 29.9636 248.853 28.1782 250.062 26.8147C251.233 25.5436 252.667 24.908 254.373 24.908C256.249 24.908 257.562 25.5234 258.308 26.7569H258.367V18.9396H261.476V35.1376C261.476 36.4636 261.511 37.6856 261.585 38.8065ZM258.367 33.0634V30.7927C258.367 30.3998 258.338 30.082 258.282 29.8394C258.107 29.1114 257.73 28.4989 257.159 28.0049C256.581 27.5109 255.884 27.2625 255.082 27.2625C253.923 27.2625 253.016 27.7102 252.35 28.6087C251.689 29.5071 251.354 30.654 251.354 32.0551C251.354 33.4014 251.671 34.4934 252.308 35.334C252.981 36.2296 253.887 36.6774 255.022 36.6774C256.042 36.6774 256.856 36.3047 257.476 35.5565C258.074 34.866 258.367 34.034 258.367 33.0634Z" fill="white"/>
<path d="M288.142 31.8847C288.142 33.9791 287.529 35.6951 286.302 37.0413C285.016 38.4251 283.316 39.1156 281.185 39.1156C279.138 39.1156 277.505 38.454 276.285 37.1251C275.07 35.7991 274.462 34.1264 274.462 32.11C274.462 30.0011 275.087 28.2707 276.344 26.9273C277.6 25.584 279.289 24.9109 281.419 24.9109C283.467 24.9109 285.117 25.5724 286.362 26.8984C287.547 28.1869 288.142 29.8509 288.142 31.8847ZM284.925 31.9829C284.925 30.7262 284.646 29.6487 284.092 28.7502C283.437 27.664 282.513 27.1209 281.304 27.1209C280.059 27.1209 279.111 27.664 278.456 28.7502C277.899 29.6487 277.624 30.7436 277.624 32.0378C277.624 33.2944 277.902 34.372 278.456 35.2704C279.129 36.3567 280.065 36.8998 281.274 36.8998C282.459 36.8998 283.393 36.348 284.062 35.2416C284.634 34.3258 284.925 33.2396 284.925 31.9829Z" fill="white"/>
<path d="M304.839 38.8065H301.736V31.0065C301.736 28.603 300.8 27.4012 298.919 27.4012C297.997 27.4012 297.253 27.7305 296.679 28.3921C296.104 29.0536 295.816 29.8336 295.816 30.7263V38.8036H292.708V29.0796C292.708 27.8836 292.673 26.5865 292.599 25.1825H295.324L295.47 27.3116H295.556C295.92 26.6501 296.459 26.1041 297.164 25.6678C298.009 25.1594 298.948 24.9023 299.982 24.9023C301.283 24.9023 302.367 25.3125 303.23 26.1358C304.305 27.1441 304.839 28.6492 304.839 30.6483V38.8065Z" fill="white"/>
<path d="M325.736 27.456H322.317V34.0716C322.317 35.7529 322.925 36.5936 324.127 36.5936C324.685 36.5936 325.147 36.5474 325.511 36.452L325.591 38.7487C324.978 38.974 324.172 39.0867 323.179 39.0867C321.953 39.0867 320.999 38.7227 320.308 37.9947C319.615 37.2667 319.271 36.0418 319.271 34.3229V27.456H317.23V25.1882H319.271V22.6922L322.314 21.7967V25.1854H325.733V27.456H325.736Z" fill="white"/>
<path d="M342.175 38.8065H339.067V31.0642C339.067 28.6231 338.13 27.4011 336.255 27.4011C334.815 27.4011 333.831 28.1089 333.292 29.5245C333.2 29.822 333.147 30.186 333.147 30.6136V38.8036H330.044V18.9396H333.147V27.1469H333.206C334.184 25.6534 335.585 24.908 337.402 24.908C338.687 24.908 339.751 25.3182 340.596 26.1416C341.647 27.1671 342.175 28.6925 342.175 30.7089V38.8065Z" fill="white"/>
<path d="M359.132 31.3531C359.132 31.8962 359.09 32.3527 359.016 32.7253H349.704C349.745 34.0716 350.19 35.0971 351.052 35.8078C351.84 36.4433 352.856 36.7611 354.101 36.7611C355.479 36.7611 356.735 36.5473 357.867 36.1169L358.353 38.22C357.028 38.7804 355.47 39.0607 353.665 39.0607C351.502 39.0607 349.799 38.4396 348.566 37.1973C347.327 35.9551 346.714 34.2882 346.714 32.1967C346.714 30.1427 347.286 28.4324 348.439 27.0689C349.641 25.6129 351.268 24.8849 353.321 24.8849C355.33 24.8849 356.856 25.6129 357.887 27.0689C358.72 28.2244 359.132 29.6544 359.132 31.3531ZM356.169 30.5702C356.193 29.6718 355.988 28.8976 355.567 28.2447C355.028 27.404 354.207 26.9822 353.096 26.9822C352.083 26.9822 351.256 27.3924 350.625 28.2158C350.11 28.8716 349.804 29.6544 349.704 30.5702H356.169Z" fill="white"/>
<path d="M158.948 91.0115H152.219L148.533 79.7188H135.721L132.21 91.0115H125.659L138.353 52.5662H146.193L158.948 91.0115ZM147.422 74.9811L144.089 64.9422C143.736 63.9166 143.076 61.5015 142.101 57.6997H141.982C141.594 59.3348 140.969 61.7499 140.11 64.9422L136.836 74.9811H147.422Z" fill="white"/>
<path d="M191.591 76.8098C191.591 81.5244 190.284 85.2511 187.671 87.9869C185.33 90.4222 182.424 91.6384 178.954 91.6384C175.209 91.6384 172.518 90.3269 170.88 87.7038H170.761V102.307H164.444V72.4158C164.444 69.4518 164.364 66.4098 164.21 63.2898H169.766L170.118 67.6838H170.237C172.344 64.3731 175.541 62.7206 179.831 62.7206C183.185 62.7206 185.985 64.012 188.225 66.5975C190.471 69.186 191.591 72.5891 191.591 76.8098ZM185.156 77.0351C185.156 74.3369 184.533 72.1124 183.283 70.3618C181.917 68.536 180.083 67.6231 177.784 67.6231C176.225 67.6231 174.809 68.1315 173.544 69.134C172.276 70.1451 171.446 71.4653 171.058 73.1004C170.862 73.8631 170.764 74.4871 170.764 74.9782V79.6004C170.764 81.6169 171.398 83.3184 172.667 84.708C173.935 86.0975 175.582 86.7909 177.609 86.7909C179.988 86.7909 181.84 85.8953 183.164 84.11C184.492 82.3218 185.156 79.9644 185.156 77.0351Z" fill="white"/>
<path d="M224.293 76.8098C224.293 81.5244 222.987 85.2511 220.37 87.9869C218.033 90.4222 215.126 91.6384 211.656 91.6384C207.911 91.6384 205.221 90.3269 203.585 87.7038H203.467V102.307H197.15V72.4158C197.15 69.4518 197.07 66.4098 196.916 63.2898H202.471L202.824 67.6838H202.942C205.046 64.3731 208.243 62.7206 212.536 62.7206C215.887 62.7206 218.687 64.012 220.933 66.5975C223.17 69.186 224.293 72.5891 224.293 76.8098ZM217.858 77.0351C217.858 74.3369 217.233 72.1124 215.982 70.3618C214.616 68.536 212.788 67.6231 210.486 67.6231C208.924 67.6231 207.511 68.1315 206.243 69.134C204.975 70.1451 204.148 71.4653 203.76 73.1004C203.567 73.8631 203.467 74.4871 203.467 74.9782V79.6004C203.467 81.6169 204.101 83.3184 205.363 84.708C206.631 86.0946 208.279 86.7909 210.311 86.7909C212.69 86.7909 214.542 85.8953 215.867 84.11C217.194 82.3218 217.858 79.9644 217.858 77.0351Z" fill="white"/>
<path d="M260.856 80.2302C260.856 83.5004 259.692 86.1611 257.354 88.2151C254.785 90.4598 251.209 91.5807 246.613 91.5807C242.37 91.5807 238.969 90.7833 236.394 89.1858L237.858 84.0522C240.631 85.6873 243.674 86.5078 246.99 86.5078C249.369 86.5078 251.221 85.982 252.551 84.9362C253.876 83.8904 254.536 82.4864 254.536 80.7358C254.536 79.1758 253.991 77.8613 252.898 76.7953C251.81 75.7293 249.994 74.7384 247.458 73.8227C240.554 71.3122 237.105 67.6347 237.105 62.7987C237.105 59.6382 238.314 57.0469 240.735 55.0304C243.147 53.0111 246.364 52.0029 250.388 52.0029C253.976 52.0029 256.957 52.6124 259.336 53.8286L257.757 58.8495C255.535 57.6709 253.022 57.0815 250.21 57.0815C247.988 57.0815 246.252 57.616 245.007 58.6791C243.956 59.6295 243.428 60.788 243.428 62.1602C243.428 63.6798 244.03 64.9364 245.239 65.9244C246.29 66.8373 248.201 67.8253 250.975 68.8913C254.367 70.2231 256.859 71.7802 258.462 73.5655C260.059 75.3451 260.856 77.5724 260.856 80.2302Z" fill="white"/>
<path d="M281.742 67.9119H274.779V81.3713C274.779 84.7946 276.006 86.5048 278.465 86.5048C279.594 86.5048 280.53 86.4095 281.271 86.2188L281.446 90.8959C280.201 91.3495 278.563 91.5777 276.533 91.5777C274.039 91.5777 272.089 90.8353 270.681 89.3533C269.28 87.8684 268.575 85.3782 268.575 81.8797V67.9062H264.427V63.2839H268.575V58.2082L274.779 56.3824V63.2839H281.742V67.9119Z" fill="white"/>
<path d="M313.158 76.9224C313.158 81.1835 311.908 84.682 309.413 87.4177C306.797 90.2344 303.324 91.6384 298.996 91.6384C294.824 91.6384 291.502 90.2893 289.025 87.5911C286.548 84.8928 285.31 81.4868 285.31 77.3817C285.31 73.086 286.584 69.5673 289.141 66.8315C291.692 64.0928 295.135 62.7235 299.464 62.7235C303.635 62.7235 306.993 64.0726 309.526 66.7737C311.95 69.394 313.158 72.7768 313.158 76.9224ZM306.604 77.1217C306.604 74.5651 306.044 72.3724 304.91 70.5437C303.585 68.3308 301.692 67.2273 299.238 67.2273C296.699 67.2273 294.77 68.3337 293.446 70.5437C292.311 72.3753 291.751 74.6026 291.751 77.2373C291.751 79.794 292.311 81.9866 293.446 83.8124C294.812 86.0253 296.72 87.1288 299.182 87.1288C301.594 87.1288 303.487 86.0022 304.853 83.7546C306.018 81.8913 306.604 79.6755 306.604 77.1217Z" fill="white"/>
<path d="M333.692 68.7064C333.067 68.5938 332.4 68.536 331.701 68.536C329.479 68.536 327.76 69.3535 326.551 70.9915C325.499 72.436 324.972 74.2618 324.972 76.466V91.0115H318.658L318.717 72.02C318.717 68.8249 318.637 65.9158 318.48 63.2926H323.982L324.213 68.5966H324.388C325.055 66.7738 326.107 65.3062 327.547 64.2055C328.954 63.2146 330.474 62.7206 332.113 62.7206C332.696 62.7206 333.224 62.7611 333.692 62.8333V68.7064Z" fill="white"/>
<path d="M361.944 75.8391C361.944 76.9426 361.87 77.8729 361.713 78.6326H342.761C342.836 81.3713 343.751 83.4657 345.511 84.9102C347.108 86.2015 349.173 86.8486 351.71 86.8486C354.516 86.8486 357.076 86.4124 359.378 85.5371L360.367 89.8126C357.677 90.9566 354.501 91.5257 350.836 91.5257C346.427 91.5257 342.966 90.2604 340.447 87.7326C337.935 85.2049 336.676 81.8104 336.676 77.5522C336.676 73.372 337.846 69.8909 340.19 67.1146C342.643 64.1506 345.958 62.6686 350.13 62.6686C354.228 62.6686 357.33 64.1506 359.437 67.1146C361.105 69.4691 361.944 72.3811 361.944 75.8391ZM355.92 74.2415C355.961 72.4157 355.55 70.8384 354.693 69.5066C353.6 67.7935 351.92 66.9384 349.659 66.9384C347.594 66.9384 345.914 67.7733 344.631 69.4489C343.579 70.7806 342.954 72.3782 342.761 74.2386H355.92V74.2415Z" fill="white"/>
</svg>
