<svg width="400" height="116" viewBox="0 0 400 116" fill="none" xmlns="http://www.w3.org/2000/svg">
<path d="M385.185 115.556H14.8148C6.67037 115.556 0 109.052 0 101.111V14.4444C0 6.5036 6.67037 -1.14441e-05 14.8148 -1.14441e-05H385.185C393.33 -1.14441e-05 400 6.5036 400 14.4444V101.111C400 109.052 393.33 115.556 385.185 115.556Z" fill="black"/>
<path d="M385.185 2.31471C392.044 2.31471 397.626 7.75666 397.626 14.4444V101.111C397.626 107.799 392.044 113.241 385.185 113.241H14.8148C7.95556 113.241 2.37407 107.799 2.37407 101.111V14.4444C2.37407 7.75666 7.95556 2.31471 14.8148 2.31471H385.185ZM385.185 -1.14441e-05H14.8148C6.67037 -1.14441e-05 0 6.5036 0 14.4444V101.111C0 109.052 6.67037 115.556 14.8148 115.556H385.185C393.33 115.556 400 109.052 400 101.111V14.4444C400 6.5036 393.33 -1.14441e-05 385.185 -1.14441e-05Z" fill="#A6A6A6"/>
<path d="M30.9185 21.7785C30.0482 22.6669 29.5445 24.0499 29.5445 25.841V89.7288C29.5445 91.5199 30.0482 92.903 30.9185 93.7913L31.1334 93.9863L67.8518 58.2002V57.3552L31.1334 21.5691L30.9185 21.7785Z" fill="url(#paint0_linear_36_482)"/>
<path d="M80.0777 70.1349L67.8517 58.2002V57.3552L80.0925 45.4204L80.3666 45.5757L94.8628 53.6177C98.9999 55.8999 98.9999 59.6554 94.8628 61.9521L80.3666 69.9796L80.0777 70.1349V70.1349Z" fill="url(#paint1_linear_36_482)"/>
<path d="M80.3666 69.9797L67.8518 57.7777L30.9185 93.7913C32.2926 95.1997 34.5333 95.3694 37.0814 93.9611L80.3666 69.9797" fill="url(#paint2_linear_36_482)"/>
<path d="M80.3666 45.5758L37.0814 21.5944C34.5333 20.2005 32.2926 20.3702 30.9185 21.7785L67.8518 57.7777L80.3666 45.5758Z" fill="url(#paint3_linear_36_482)"/>
<path d="M140.496 29.593C140.496 32.0053 139.756 33.9372 138.296 35.3781C136.619 37.0861 134.433 37.9455 131.756 37.9455C129.196 37.9455 127.011 37.0717 125.218 35.3492C123.422 33.6014 122.526 31.4564 122.526 28.8889C122.526 26.3214 123.422 24.1764 125.218 22.443C127.011 20.7061 129.196 19.8322 131.756 19.8322C133.03 19.8322 134.244 20.0886 135.404 20.5653C136.559 21.0455 137.5 21.6955 138.181 22.4972L136.633 24.0211C135.444 22.6525 133.826 21.9772 131.756 21.9772C129.889 21.9772 128.27 22.6128 126.896 23.8947C125.537 25.1803 124.856 26.845 124.856 28.8889C124.856 30.9328 125.537 32.6119 126.896 33.8975C128.27 35.165 129.889 35.815 131.756 35.815C133.737 35.815 135.404 35.165 136.719 33.883C137.585 33.0344 138.078 31.8644 138.207 30.3694H131.756V28.2822H140.363C140.467 28.7336 140.496 29.1705 140.496 29.593V29.593Z" fill="white" stroke="white" stroke-width="0.16" stroke-miterlimit="10"/>
<path d="M154.152 22.3564H146.067V27.8453H153.356V29.9325H146.067V35.4214H154.152V37.5483H143.778V20.2294H154.152V22.3564Z" fill="white" stroke="white" stroke-width="0.16" stroke-miterlimit="10"/>
<path d="M163.789 37.5483H161.5V22.3564H156.541V20.2294H168.752V22.3564H163.789V37.5483V37.5483Z" fill="white" stroke="white" stroke-width="0.16" stroke-miterlimit="10"/>
<path d="M177.589 37.5483V20.2294H179.874V37.5483H177.589Z" fill="white" stroke="white" stroke-width="0.16" stroke-miterlimit="10"/>
<path d="M190.004 37.5483H187.733V22.3564H182.755V20.2294H194.981V22.3564H190.004V37.5483Z" fill="white" stroke="white" stroke-width="0.16" stroke-miterlimit="10"/>
<path d="M218.1 35.3203C216.348 37.0717 214.178 37.9455 211.589 37.9455C208.985 37.9455 206.815 37.0717 205.063 35.3203C203.315 33.5725 202.444 31.4275 202.444 28.8889C202.444 26.3503 203.315 24.2053 205.063 22.4575C206.815 20.7061 208.985 19.8322 211.589 19.8322C214.163 19.8322 216.333 20.7061 218.085 22.4719C219.848 24.2342 220.718 26.3647 220.718 28.8889C220.718 31.4275 219.848 33.5725 218.1 35.3203ZM206.756 33.8686C208.074 35.165 209.678 35.815 211.589 35.815C213.485 35.815 215.104 35.165 216.407 33.8686C217.722 32.5722 218.389 30.9075 218.389 28.8889C218.389 26.8703 217.722 25.2055 216.407 23.9092C215.104 22.6128 213.485 21.9628 211.589 21.9628C209.678 21.9628 208.074 22.6128 206.756 23.9092C205.441 25.2055 204.774 26.8703 204.774 28.8889C204.774 30.9075 205.441 32.5722 206.756 33.8686V33.8686Z" fill="white" stroke="white" stroke-width="0.16" stroke-miterlimit="10"/>
<path d="M223.93 37.5483V20.2294H226.707L235.344 33.6989H235.444L235.344 30.3694V20.2294H237.63V37.5483H235.244L226.2 23.4144H226.1L226.2 26.7583V37.5483H223.93V37.5483Z" fill="white" stroke="white" stroke-width="0.16" stroke-miterlimit="10"/>
<path d="M201.881 62.8406C194.922 62.8406 189.237 68.0044 189.237 75.1292C189.237 82.1961 194.922 87.4142 201.881 87.4142C208.856 87.4142 214.541 82.1961 214.541 75.1292C214.541 68.0044 208.856 62.8406 201.881 62.8406ZM201.881 82.5753C198.063 82.5753 194.778 79.5022 194.778 75.1292C194.778 70.6983 198.063 67.6794 201.881 67.6794C205.7 67.6794 209 70.6983 209 75.1292C209 79.5022 205.7 82.5753 201.881 82.5753V82.5753ZM174.293 62.8406C167.319 62.8406 161.648 68.0044 161.648 75.1292C161.648 82.1961 167.319 87.4142 174.293 87.4142C181.263 87.4142 186.937 82.1961 186.937 75.1292C186.937 68.0044 181.263 62.8406 174.293 62.8406ZM174.293 82.5753C170.47 82.5753 167.174 79.5022 167.174 75.1292C167.174 70.6983 170.47 67.6794 174.293 67.6794C178.111 67.6794 181.396 70.6983 181.396 75.1292C181.396 79.5022 178.111 82.5753 174.293 82.5753ZM141.463 66.6069V71.8286H154.252C153.878 74.7464 152.878 76.8914 151.344 78.3864C149.478 80.1919 146.57 82.1961 141.463 82.1961C133.593 82.1961 127.43 76.0031 127.43 68.3295C127.43 60.6558 133.593 54.4628 141.463 54.4628C145.719 54.4628 148.815 56.0842 151.1 58.1858L154.874 54.5061C151.678 51.5306 147.426 49.2447 141.463 49.2447C130.67 49.2447 121.6 57.8067 121.6 68.3295C121.6 78.8522 130.67 87.4142 141.463 87.4142C147.296 87.4142 151.678 85.5508 155.122 82.0553C158.652 78.6139 159.752 73.775 159.752 69.8678C159.752 68.6544 159.648 67.5386 159.463 66.6069H141.463ZM275.707 70.655C274.667 67.9069 271.456 62.8406 264.915 62.8406C258.433 62.8406 253.037 67.8203 253.037 75.1292C253.037 82.0119 258.378 87.4142 265.537 87.4142C271.326 87.4142 274.667 83.9728 276.041 81.9686L271.744 79.1772C270.311 81.2211 268.359 82.5753 265.537 82.5753C262.733 82.5753 260.722 81.3222 259.433 78.8522L276.289 72.0525L275.707 70.655V70.655ZM258.522 74.7464C258.378 70.0086 262.296 67.5819 265.104 67.5819C267.304 67.5819 269.17 68.6544 269.793 70.1892L258.522 74.7464V74.7464ZM244.822 86.6667H250.363V50.5556H244.822V86.6667ZM235.748 65.5778H235.563C234.318 64.1406 231.944 62.8406 228.937 62.8406C222.626 62.8406 216.856 68.2428 216.856 75.1689C216.856 82.0553 222.626 87.4142 228.937 87.4142C231.944 87.4142 234.318 86.1033 235.563 84.6228H235.748V86.385C235.748 91.0831 233.174 93.6072 229.022 93.6072C225.637 93.6072 223.537 91.2239 222.67 89.2197L217.852 91.1806C219.241 94.4378 222.918 98.4461 229.022 98.4461C235.518 98.4461 241 94.7194 241 85.6519V63.5881H235.748V65.5778V65.5778ZM229.411 82.5753C225.593 82.5753 222.396 79.4589 222.396 75.1689C222.396 70.8392 225.593 67.6794 229.411 67.6794C233.174 67.6794 236.141 70.8392 236.141 75.1689C236.141 79.4589 233.174 82.5753 229.411 82.5753V82.5753ZM301.648 50.5556H288.396V86.6667H293.922V72.9842H301.648C307.785 72.9842 313.804 68.6544 313.804 61.7681C313.804 54.8853 307.77 50.5556 301.648 50.5556V50.5556ZM301.793 67.9611H293.922V55.5786H301.793C305.918 55.5786 308.274 58.9189 308.274 61.7681C308.274 64.5631 305.918 67.9611 301.793 67.9611ZM335.952 62.7719C331.959 62.7719 327.807 64.4908 326.1 68.3006L331.004 70.3047C332.059 68.3006 334 67.6506 336.052 67.6506C338.918 67.6506 341.826 69.3297 341.87 72.2944V72.6736C340.87 72.1103 338.73 71.2761 336.096 71.2761C330.815 71.2761 325.433 74.1108 325.433 79.4011C325.433 84.24 329.759 87.3564 334.622 87.3564C338.341 87.3564 340.393 85.7206 341.681 83.8175H341.87V86.6089H347.207V72.7567C347.207 66.3542 342.304 62.7719 335.952 62.7719ZM335.285 82.5608C333.478 82.5608 330.959 81.6869 330.959 79.5022C330.959 76.7072 334.1 75.6347 336.818 75.6347C339.252 75.6347 340.393 76.1583 341.87 76.8481C341.437 80.1919 338.485 82.5608 335.285 82.5608V82.5608ZM366.652 63.5628L360.3 79.2169H360.111L353.544 63.5628H347.585L357.452 85.4389L351.822 97.6119H357.596L372.8 63.5628H366.652V63.5628ZM316.841 86.6667H322.381V50.5556H316.841V86.6667Z" fill="white"/>
<defs>
<linearGradient id="paint0_linear_36_482" x1="64.5917" y1="90.3941" x2="16.1247" y2="40.6845" gradientUnits="userSpaceOnUse">
<stop stop-color="#00A0FF"/>
<stop offset="0.0066" stop-color="#00A1FF"/>
<stop offset="0.2601" stop-color="#00BEFF"/>
<stop offset="0.5122" stop-color="#00D2FF"/>
<stop offset="0.7604" stop-color="#00DFFF"/>
<stop offset="1" stop-color="#00E3FF"/>
</linearGradient>
<linearGradient id="paint1_linear_36_482" x1="100.25" y1="57.7736" x2="28.5555" y2="57.7736" gradientUnits="userSpaceOnUse">
<stop stop-color="#FFE000"/>
<stop offset="0.4087" stop-color="#FFBD00"/>
<stop offset="0.7754" stop-color="#FFA500"/>
<stop offset="1" stop-color="#FF9C00"/>
</linearGradient>
<linearGradient id="paint2_linear_36_482" x1="73.5614" y1="51.1446" x2="7.83632" y2="-16.2658" gradientUnits="userSpaceOnUse">
<stop stop-color="#FF3A44"/>
<stop offset="1" stop-color="#C31162"/>
</linearGradient>
<linearGradient id="paint3_linear_36_482" x1="21.6216" y1="115.046" x2="50.9708" y2="84.945" gradientUnits="userSpaceOnUse">
<stop stop-color="#32A071"/>
<stop offset="0.0685" stop-color="#2DA771"/>
<stop offset="0.4762" stop-color="#15CF74"/>
<stop offset="0.8009" stop-color="#06E775"/>
<stop offset="1" stop-color="#00F076"/>
</linearGradient>
</defs>
</svg>
