<svg width="154" height="200" viewBox="0 0 154 200" fill="none" xmlns="http://www.w3.org/2000/svg">
<path d="M59.1833 1.08729C60.4942 0.72298 61.9508 0.358671 62.4607 0.249379C62.9705 0.176517 64.2814 0.0672241 65.3738 0.0672241C66.4663 0.0307932 67.5587 0.140086 67.8136 0.28581C68.0321 0.431533 68.5055 2.10735 68.8697 4.00176C69.3431 6.69765 69.4887 9.61212 69.5251 17.299C69.5616 24.6581 69.4523 27.5361 69.0518 28.7748C68.7968 29.6855 68.4327 32.1264 68.287 34.2394C68.105 36.3524 67.8136 38.7933 67.5952 39.704C67.3402 40.8334 66.8304 41.6349 66.0293 42.3271C65.3738 42.8735 64.6091 43.3107 64.3906 43.3471C64.1357 43.3471 63.0433 43.93 62.0237 44.6222C60.9676 45.3144 59.9844 45.8973 59.8388 45.8973C59.6567 45.8973 58.455 46.6623 57.1077 47.5731C55.7239 48.4839 53.5754 50.269 52.2645 51.5077C50.9535 52.7463 49.4241 54.4221 48.8051 55.2236C48.2224 55.9887 47.1664 57.4823 46.5109 58.466C45.819 59.486 44.8358 61.1254 44.3624 62.1091C43.8526 63.1291 42.8694 65.4971 42.1776 67.3915C41.4857 69.2859 40.721 72.0183 40.5025 73.4026C40.284 74.787 40.0655 79.2316 40.0655 83.239C40.0655 87.2464 40.2112 91.6909 40.3932 93.0753C40.5753 94.4961 40.9394 96.0626 41.1944 96.6455C41.4857 97.192 41.8498 98.3214 42.0319 99.1957C42.2504 100.034 42.5417 101.309 42.7238 102.001C42.8694 102.693 43.9255 105.061 44.9815 107.283C46.2196 109.834 47.567 111.91 48.623 113.003C49.679 114.132 50.5894 114.752 51.172 114.752C51.7547 114.752 52.5194 114.315 53.2113 113.586C53.8667 112.93 54.5222 111.801 54.7407 111.109C54.9592 110.416 55.5054 108.522 55.9788 106.919C56.7799 104.114 56.8163 103.495 56.8892 89.7965C56.9256 82.0003 57.0348 75.1149 57.1441 74.4956C57.2533 73.8398 57.9452 72.8562 58.8192 72.0547C59.6203 71.2896 60.7127 70.561 61.2954 70.4153C61.8416 70.2331 63.4439 70.1238 64.8276 70.1238C66.2114 70.1238 67.8501 70.3424 68.4691 70.5975C69.0882 70.8525 70.0714 71.6904 71.7829 73.7669L72.0014 88.5215C72.147 97.9206 72.3655 104.077 72.6568 105.462C72.9117 106.664 73.1666 107.793 73.2395 108.012C73.3123 108.231 73.5308 108.631 73.7129 108.923C73.8949 109.214 74.2955 110.234 74.6232 111.218C75.0238 112.42 75.57 113.149 76.4076 113.659C77.0266 114.06 77.9734 114.351 78.4832 114.351C79.0658 114.351 79.867 113.877 80.6681 113.003C81.5785 112.019 82.1247 110.926 82.5617 109.251C82.8894 107.976 83.3992 105.79 83.727 104.369C84.0183 102.948 84.3824 99.1228 84.4917 95.8076C84.6009 92.4924 84.5645 86.5178 84.3824 82.5104C84.1275 77.2643 84.1639 74.8234 84.4553 73.8034C84.6737 72.9655 85.3656 71.9818 86.1303 71.3625C87.0407 70.5975 88.0239 70.1967 89.5898 69.9781C90.9007 69.7595 92.5029 69.796 93.5954 69.9781C94.615 70.1603 95.9259 70.6339 96.5086 70.9618C97.0912 71.3261 98.0016 72.3461 98.4386 73.2205C98.9848 74.277 99.3125 75.4428 99.2761 76.4993C99.2761 77.41 99.094 79.0494 98.8755 80.1423C98.6935 81.2353 98.5114 84.8055 98.5114 88.0843C98.5114 92.0188 98.6935 94.6783 99.0212 96.0991C99.3125 97.2284 99.7131 99.815 99.9316 101.819C100.15 103.822 100.478 106.3 100.66 107.283C100.842 108.303 101.461 110.016 102.044 111.109C102.723 112.444 103.427 113.27 104.156 113.586C105.066 114.023 105.43 114.023 106.304 113.586C106.887 113.331 107.979 112.311 108.671 111.291C109.399 110.307 110.201 109.068 110.419 108.558C110.674 108.048 111.366 106.555 111.948 105.207C112.568 103.822 113.077 102.511 113.077 102.292C113.077 102.037 113.478 100.507 113.988 98.9043C114.534 97.2284 115.226 93.4761 115.626 90.1608C116.027 86.8821 116.282 83.3847 116.173 82.146C116.063 80.9438 115.808 78.3208 115.59 76.3171C115.335 74.1312 114.68 71.0711 113.915 68.6666C113.223 66.4443 111.985 63.3477 111.184 61.7447C110.383 60.1418 108.962 57.7738 108.016 56.4987C107.105 55.2236 105.102 53.0013 103.609 51.5077C102.116 50.014 100.769 48.8118 100.623 48.8118C100.441 48.8118 99.8223 48.3746 99.1669 47.8281C98.5478 47.2452 97.164 46.3709 96.1808 45.8244C95.1612 45.278 93.3405 44.2943 92.1388 43.7114L91.9886 43.634C90.827 43.0354 89.5731 42.3894 89.1892 42.1449C88.7522 41.8899 88.2788 41.6349 88.1696 41.5256C88.0603 41.4163 87.769 40.6877 87.5869 39.8862C87.3684 39.0847 87.0407 36.7167 86.8222 34.6037C86.6401 32.4907 86.2032 29.6855 85.9118 28.3376C85.5113 26.4432 85.402 22.9094 85.402 1.08729L86.4217 0.467964C87.1864 -0.00563765 87.9147 -0.0784995 89.7718 0.0672241C91.0828 0.212948 93.2677 0.613688 94.6878 1.05086C96.108 1.4516 97.7467 1.9252 98.3293 2.10735C98.912 2.32594 100.259 2.65382 101.243 2.90883C102.262 3.12742 103.719 3.60102 104.52 3.96533C105.321 4.32964 106.814 4.91253 107.797 5.27684C108.817 5.64115 111.621 7.06196 114.097 8.44633C116.537 9.79427 118.758 11.1058 119.013 11.2879C119.231 11.5065 120.36 12.2716 121.453 13.0002C122.545 13.7288 123.601 14.5303 123.82 14.7489C124.038 15.0039 125.094 15.8418 126.187 16.6433C127.279 17.4448 129.683 19.5578 131.467 21.3793C133.251 23.2008 135.181 25.1317 135.691 25.7146C136.201 26.2975 137.403 27.864 138.422 29.2119C139.405 30.5235 140.534 32.09 140.935 32.6729C141.319 33.1973 142.14 34.4936 142.817 35.5633L142.901 35.6966C143.557 36.7896 145.05 39.6676 146.215 42.0721C147.38 44.4765 148.582 47.3545 148.946 48.4475C149.31 49.5404 149.784 50.8519 150.038 51.3619C150.293 51.872 150.767 53.3292 151.058 54.6407C151.386 55.9522 151.75 57.5916 151.859 58.2838C152.005 58.976 152.333 60.2875 152.624 61.1983C152.879 62.1091 153.316 64.7321 153.534 67.0272C153.789 69.5774 153.862 73.6941 153.716 77.5922C153.607 81.0895 153.352 85.2062 153.17 86.6999C152.988 88.1936 152.588 90.088 152.26 90.8895C151.968 91.6909 151.714 92.711 151.677 93.1482C151.677 93.6218 151.422 95.0062 151.095 96.2448C150.767 97.5199 150.293 98.9407 150.038 99.4507C149.784 99.9608 149.383 101.017 149.128 101.819C148.91 102.62 148.363 104.005 147.963 104.915C147.562 105.826 146.433 108.194 145.487 110.198C144.54 112.202 143.484 114.096 143.156 114.387C142.828 114.679 142.537 115.08 142.573 115.298C142.573 115.517 142.027 116.464 141.299 117.484C140.607 118.468 139.405 120.216 138.641 121.382C137.912 122.511 136.966 123.823 136.565 124.297C136.164 124.77 135.254 125.936 134.562 126.92C133.87 127.867 132.778 129.251 132.195 129.98C131.576 130.745 130.083 132.603 128.918 134.169C127.716 135.736 126.405 137.485 126.005 138.031C125.604 138.614 124.22 140.472 122.909 142.148C121.598 143.86 118.904 147.321 116.901 149.871C114.898 152.421 112.713 155.19 112.094 156.028C111.439 156.866 110.492 158.141 109.982 158.833C109.472 159.525 108.416 160.91 107.615 161.93C106.814 162.913 105.649 164.48 104.993 165.391C104.374 166.301 103.755 167.103 103.646 167.212C103.5 167.321 102.918 168.05 102.335 168.815C101.716 169.58 100.842 170.782 100.332 171.438C99.8223 172.13 98.1837 174.243 96.6907 176.174C95.1984 178.104 93.1603 180.798 92.1403 182.147L92.1388 182.149C91.1556 183.497 89.8447 185.245 89.2256 186.047C88.6065 186.812 87.1864 188.597 86.0575 190.018C84.8922 191.402 82.6345 194.207 81.0322 196.248C78.7381 199.235 77.937 200 77.2087 200C76.626 200 75.8613 199.526 75.133 198.688C74.4776 197.96 73.6764 196.976 73.3851 196.539C73.0938 196.065 71.8921 194.499 70.7268 193.042C69.598 191.548 68.0685 189.617 67.3767 188.706C66.6848 187.796 65.8472 186.739 65.4831 186.338C65.1189 185.938 63.5895 183.97 62.0601 181.967C60.5671 179.963 58.4914 177.267 57.5082 176.028C56.525 174.753 55.469 173.333 55.1777 172.932C54.8864 172.495 54.1581 171.547 53.539 170.819C52.9564 170.09 51.7547 168.487 50.9171 167.249C50.0432 166.046 49.2056 165.026 48.9871 165.026C48.7687 165.026 48.5502 164.735 48.4409 164.407C48.3681 164.043 47.8947 163.351 47.4577 162.84C46.9843 162.33 45.7826 160.8 44.7266 159.38C43.6706 157.995 42.4325 156.392 41.9955 155.846C41.5221 155.336 40.1019 153.441 38.791 151.693C37.48 149.944 35.5136 147.43 34.4212 146.119C33.2923 144.807 31.945 143.059 31.3987 142.257C30.8525 141.456 29.9786 140.217 29.4688 139.525C28.9589 138.833 28.1578 137.849 27.7208 137.339C27.2474 136.829 26.0822 135.372 25.0626 134.06C24.0793 132.749 22.2222 130.308 20.9113 128.632C19.6367 126.992 17.7796 124.515 16.7964 123.167C15.8496 121.856 14.0288 119.196 12.7907 117.302C11.589 115.371 10.3509 113.513 10.1324 113.112C9.87754 112.712 8.85792 110.744 7.87472 108.741C6.8551 106.737 5.94473 104.587 5.79907 104.005C5.65341 103.422 5.43492 102.766 5.28926 102.547C5.10719 102.329 4.6338 101.199 4.23323 99.9972C3.79625 98.795 3.46852 97.5199 3.46852 97.192C3.46852 96.8277 3.21361 96.0262 2.9223 95.4433C2.63098 94.8604 2.194 93.2575 1.97551 91.9095C1.75702 90.5252 1.35645 87.7928 1.06514 85.7891C0.773817 83.7854 0.373253 80.5431 0.191178 78.5758C-0.0637261 76.2807 -0.0637261 73.9855 0.191178 72.0547C0.373253 70.3789 0.773817 67.3187 1.06514 65.2057C1.35645 63.0927 1.79343 60.3239 2.01192 59.0124C2.23041 57.7009 2.66739 56.2072 2.95871 55.6608C3.25003 55.0779 3.46852 54.3857 3.46852 54.0943C3.46852 53.8028 3.79625 52.5277 4.23323 51.2891C4.6338 50.014 5.10719 48.8482 5.28926 48.6296C5.43492 48.411 5.65341 47.7917 5.79907 47.1724C5.94473 46.5531 6.89152 44.4401 7.87472 42.4364C8.85792 40.4327 10.2417 37.8825 10.9336 36.7896C11.6255 35.6966 12.3173 34.5309 12.463 34.2394C12.6087 33.948 13.2641 32.8915 13.956 31.8714C14.6479 30.8878 16.1409 28.8112 17.2698 27.3175C18.3986 25.8239 21.0933 22.8001 23.3146 20.6507C25.4995 18.4648 27.6844 16.6433 28.1578 16.534C28.5948 16.4611 28.9589 16.2061 28.9589 16.024C28.9589 15.8418 29.9057 14.9675 31.0346 14.0931C32.1999 13.2552 34.1299 11.9073 35.3316 11.1058C36.5332 10.3043 38.7546 9.02923 40.2476 8.26418C41.7406 7.49913 43.1608 6.73408 43.3428 6.58836C43.5249 6.4062 44.6902 5.9326 45.8919 5.459C47.0936 4.9854 48.7322 4.32964 49.5334 3.96533C50.3345 3.60102 51.7911 3.12742 52.8107 2.90883C53.7939 2.65382 55.1048 2.32594 55.7239 2.10735C56.3429 1.9252 57.8724 1.4516 59.1833 1.08729Z" fill="#FF8B00"/>
<path d="M59.8373 2.27198L59.912 2.253C62.2061 1.63367 64.7188 1.16007 65.4835 1.12364C66.2118 1.08721 66.9037 1.1965 66.9765 1.34222C67.0493 1.52438 67.3406 5.56821 67.5955 10.3771C67.9233 17.299 67.9233 20.5413 67.5955 26.0424C67.3406 29.8312 66.9037 34.3486 66.6123 36.0609C66.321 37.7731 65.9569 39.5582 65.7384 40.0683C65.5563 40.5783 64.8644 41.2341 64.2089 41.5255C63.5535 41.817 61.6235 42.8734 59.912 43.8571C58.2005 44.8407 56.0156 46.2251 54.996 46.9901C54.0128 47.7188 51.9371 49.5403 50.4441 51.034C48.9147 52.5276 47.1668 54.4585 46.5477 55.3692C45.9287 56.28 44.6541 58.2837 43.7438 59.8138C42.8334 61.3803 41.4132 64.6227 40.6121 67.0271C39.811 69.4316 39.0098 72.4918 38.7914 73.8397C38.6093 75.2241 38.3544 78.1021 38.2087 80.3244C38.0631 82.6924 38.1359 86.1898 38.3908 88.8857C38.6457 91.3994 39.0098 94.241 39.2283 95.2611C39.4104 96.2447 39.993 98.467 40.4664 100.179C40.9762 101.892 41.5225 103.567 41.7045 103.895C41.923 104.26 42.0687 104.77 42.0687 104.988C42.0687 105.243 42.5785 106.518 43.1976 107.83C43.8166 109.141 44.9091 111.109 45.6374 112.201C46.3657 113.294 47.5309 114.752 48.2228 115.407C48.9511 116.063 49.8615 116.682 50.262 116.792C50.6626 116.901 51.3545 116.901 51.8279 116.792C52.2649 116.682 53.1388 116.136 53.7579 115.553C54.4133 115.007 55.1416 114.059 55.4694 113.477C55.7607 112.894 56.2341 111.655 56.489 110.744C56.7439 109.833 57.2537 107.866 57.6179 106.372C58.1641 104.004 58.2733 101.636 58.3826 74.1312L59.4022 73.3297C59.9848 72.8925 61.2229 72.2732 62.2061 71.9453C63.5535 71.5081 64.3182 71.4717 65.7384 71.7632C66.758 71.9817 67.8504 72.2732 68.2146 72.4553C68.5423 72.6375 69.1614 73.1475 69.5619 73.5847C70.2538 74.3497 70.2902 74.8233 70.181 84.6597C70.1082 90.3793 70.2174 96.9005 70.4359 99.4506C70.6908 101.964 71.0185 104.915 71.237 106.008C71.4555 107.101 72.111 109.323 72.6936 110.926C73.3127 112.529 74.1502 114.242 74.5872 114.679C75.0242 115.152 75.8253 115.772 76.4079 116.063C76.9542 116.355 77.7189 116.573 78.1194 116.573C78.52 116.573 79.5032 116.245 80.3043 115.845C81.3968 115.298 82.0158 114.642 82.7077 113.185C83.2539 112.165 83.9094 110.562 84.2007 109.651C84.4921 108.741 84.8562 107.028 85.0747 105.826C85.2568 104.624 85.5481 100.871 85.7302 97.4469C85.9486 93.8403 85.9486 87.8292 85.7666 83.0567C85.5845 78.1386 85.5845 74.5319 85.803 74.0219C85.9851 73.5847 86.7862 72.8196 87.5873 72.3096C88.7526 71.581 89.5173 71.3988 91.5201 71.3988C93.5594 71.3988 94.2148 71.5446 95.5258 72.3825C96.3633 72.9654 97.1644 73.6576 97.2737 73.949C97.4193 74.2405 97.4922 79.1586 97.4557 84.8783C97.4193 90.5979 97.565 97.1555 97.7835 99.4506C98.0384 101.746 98.621 105.352 99.1308 107.465C99.6406 109.578 100.442 111.946 100.879 112.748C101.352 113.549 102.117 114.569 102.59 114.97C103.064 115.407 103.938 115.881 104.52 115.99C105.103 116.136 106.013 116.1 106.523 115.917C107.033 115.699 107.761 115.262 108.162 114.897C108.562 114.497 109.363 113.549 109.982 112.748C110.565 111.946 111.73 109.797 112.604 108.012C113.442 106.227 114.716 102.693 115.445 100.179C116.173 97.6655 117.011 93.731 117.265 91.4358C117.557 89.1407 117.812 85.3883 117.812 83.1296C117.812 80.9073 117.63 77.8471 117.448 76.3899C117.229 74.9691 116.865 72.9289 116.646 71.9453C116.428 70.9252 115.845 68.8851 115.372 67.3914C114.862 65.8978 113.806 63.3476 113.005 61.7447C112.204 60.1417 110.893 57.8465 110.092 56.6443C109.254 55.4421 107.943 53.7299 107.106 52.8191C106.305 51.9083 104.629 50.2689 103.391 49.176C102.153 48.0831 100.333 46.5894 99.3493 45.8972C98.3661 45.205 95.7443 43.7114 93.4865 42.6184C90.5005 41.1248 89.3716 40.3597 89.0803 39.704C88.8982 39.1939 88.4977 36.8988 88.17 34.6036C87.8786 32.3085 87.4417 28.4468 87.2596 26.0424C87.0411 23.6379 86.7862 19.3027 86.6769 16.3882C86.6041 13.4737 86.6405 8.88342 86.7862 6.18753L86.7878 6.15674C87.0411 1.30564 87.043 1.26913 87.9515 1.16007C88.4613 1.08721 90.0999 1.30579 91.5929 1.63367C93.086 1.99798 95.8171 2.69017 97.6014 3.16377C99.3857 3.6738 101.389 4.18383 101.971 4.36599C102.554 4.51171 104.12 5.09461 105.431 5.64107C106.742 6.18753 109.436 7.46261 111.439 8.48268C113.442 9.50274 116.391 11.1786 117.994 12.1986C119.596 13.2551 121.963 14.9309 123.274 15.9874C124.585 17.0439 126.588 18.7562 127.789 19.7763C128.955 20.8328 131.467 23.3829 133.361 25.4959C135.254 27.6089 137.876 30.9605 139.224 32.9642C140.571 34.9679 141.882 36.9352 142.1 37.3359C142.355 37.7367 143.339 39.6311 144.322 41.5255C145.269 43.4199 146.689 46.6258 147.417 48.6295C148.145 50.6332 148.983 53.0012 149.274 53.912C149.565 54.8228 150.221 57.5187 150.731 59.9231C151.241 62.3275 151.823 65.7885 152.042 67.5736C152.224 69.3587 152.406 72.8925 152.406 75.4062C152.406 77.92 152.224 81.4538 152.005 83.2389C151.823 85.024 151.313 88.0842 150.876 89.9786C150.476 91.873 150.002 94.0224 149.857 94.7146C149.675 95.4068 149.42 96.4997 149.201 97.0826C149.019 97.6655 148.327 99.6692 147.672 101.454C147.053 103.239 145.633 106.518 144.54 108.741C143.448 110.963 142.355 113.076 142.1 113.477C141.882 113.877 140.68 115.662 139.515 117.484C138.313 119.269 135.946 122.657 134.235 124.952C132.523 127.247 131.03 129.215 130.885 129.324C130.775 129.433 130.229 130.162 129.647 130.963C129.064 131.765 128.408 132.566 128.19 132.785C128.008 133.003 126.333 135.08 124.548 137.484C122.728 139.852 120.579 142.731 119.705 143.86C118.868 144.989 117.957 146.155 117.702 146.446C117.484 146.738 116.1 148.487 114.716 150.272C113.296 152.057 111.184 154.862 109.982 156.465C108.817 158.068 107.725 159.452 107.616 159.562C107.47 159.671 106.814 160.509 106.122 161.42C105.431 162.33 103.573 164.808 102.008 166.884C100.405 168.961 98.2933 171.73 97.2737 173.041C96.2905 174.353 95.1252 175.846 94.7246 176.356C94.2877 176.866 93.5594 177.813 93.0495 178.506C92.5397 179.161 91.8114 180.145 91.4109 180.692C91.0103 181.238 89.7358 182.914 88.6069 184.371C87.4781 185.865 85.4753 188.451 84.1279 190.164C82.817 191.876 81.5424 193.515 81.2875 193.807C81.0326 194.098 80.2679 195.082 79.576 195.993C78.8841 196.903 78.1194 197.85 77.8645 198.105C77.646 198.324 77.2091 198.543 76.9542 198.543C76.6993 198.543 75.8617 197.778 75.1334 196.83L75.1325 196.829C74.3673 195.845 72.5838 193.551 71.1278 191.657C69.6712 189.799 68.0689 187.723 67.5591 187.067C67.0493 186.411 65.6655 184.59 64.4639 183.023C63.2622 181.42 62.0969 179.89 61.842 179.599C61.6235 179.307 60.4582 177.813 59.2929 176.32C58.1277 174.826 55.7243 171.693 53.9764 169.398C52.2649 167.103 49.5337 163.569 48.0043 161.529C46.4385 159.489 44.4357 156.866 43.5253 155.7C42.6149 154.534 41.8138 153.478 41.7045 153.368C41.5953 153.259 40.3208 151.62 38.8642 149.725C37.4076 147.831 34.8585 144.479 33.147 142.257C31.4355 140.035 29.5784 137.667 28.9957 136.974C28.4131 136.282 27.3935 134.934 26.738 133.987C26.0461 133.076 24.0797 130.453 22.3682 128.158C20.6567 125.899 19.0181 123.786 18.7267 123.495C18.4354 123.204 17.0152 121.309 15.6315 119.305C14.2113 117.302 12.3906 114.533 11.5894 113.112C10.7883 111.691 9.40453 108.996 8.49416 107.101C7.58378 105.207 6.1636 101.6 5.36248 99.0863C4.56135 96.5726 3.79663 94.1317 3.68739 93.6217C3.54173 93.1117 3.214 91.3994 2.95909 89.7964C2.66777 88.1935 2.23079 85.2426 1.97589 83.2389C1.68457 80.8709 1.61174 77.4099 1.7574 73.4025C1.90306 70.0145 2.30362 65.3149 2.70419 63.0197C3.10475 60.7246 3.57815 58.1016 3.79663 57.1908C3.97871 56.28 4.88908 53.4384 5.79945 50.8154C6.67341 48.1924 8.42133 44.1121 9.65943 41.7077C10.8611 39.3032 13.1553 35.478 14.6847 33.1828C16.2141 30.8877 18.6539 27.6818 20.0741 26.0788C21.4943 24.4394 23.9705 21.8892 25.5727 20.3956C27.175 18.9019 28.7773 17.4082 29.1778 17.1168C29.542 16.8254 31.1078 15.6596 32.6008 14.5666C34.0938 13.4737 36.5336 11.8343 38.0631 10.9235C39.5561 10.0128 41.9594 8.70126 43.3432 8.04551C44.727 7.35332 47.0575 6.33326 48.4413 5.75036C49.8251 5.13104 51.5366 4.51171 52.192 4.32956C52.8111 4.1474 53.9035 3.85596 54.5226 3.6738C55.1709 3.45759 57.5651 2.84928 59.8373 2.27198Z" fill="#FF8B00"/>
</svg>
